<?xml version="1.0"?>
<svg xmlns="http://www.w3.org/2000/svg" xmlns:xlink="http://www.w3.org/1999/xlink" xmlns:svgjs="http://svgjs.com/svgjs" version="1.1" width="512" height="512" x="0" y="0" viewBox="0 0 512 512" style="enable-background:new 0 0 512 512" xml:space="preserve" class=""><g transform="matrix(-1.8369701987210297e-16,-1,1,-1.8369701987210297e-16,0.2000274658203125,512.0000152587892)">
  <g xmlns="http://www.w3.org/2000/svg">
    <g>
      <path d="m304.7,10.9c-108.5,0-196.4,87.9-196.4,196.4 0,46.9 16.4,89.9 43.8,123.7l-135,135c-8,8-8,20.9 0,28.9 8,8 20.9,8 28.9,0l135-135c33.8,27.4 76.8,43.8 123.7,43.8 108.5,0 196.4-87.9 196.4-196.4s-88-196.4-196.4-196.4zm0,352c-85.9,0-155.6-69.7-155.6-155.6 0-85.9 69.7-155.6 155.6-155.6 85.9,0 155.6,69.7 155.6,155.6 5.68434e-14,85.9-69.7,155.6-155.6,155.6z" fill="#ffffff" data-original="#000000" style="" class=""/>
    </g>
  </g>
</g></svg>
