<?xml version="1.0"?>
<svg xmlns="http://www.w3.org/2000/svg" xmlns:xlink="http://www.w3.org/1999/xlink" xmlns:svgjs="http://svgjs.com/svgjs" version="1.1" width="512" height="512" x="0" y="0" viewBox="0 0 512.056 512.056" style="enable-background:new 0 0 512 512" xml:space="preserve" class=""><g>
<g xmlns="http://www.w3.org/2000/svg">
	<g>
		<path d="M434.16,244.225c-51.968-53.867-126.229-82.155-220.843-84.096V64.022c0-4.309-2.603-8.213-6.592-9.856    c-3.989-1.621-8.555-0.747-11.605,2.304l-192,192c-4.16,4.16-4.16,10.923,0,15.083l192,192c3.051,3.072,7.659,3.989,11.627,2.304    c3.989-1.643,6.592-5.547,6.592-9.856v-95.915c214.336,3.115,278.315,100.565,278.933,101.525c1.984,3.2,5.44,5.056,9.067,5.056    c0.896,0,1.813-0.128,2.731-0.363c4.544-1.216,7.765-5.227,7.936-9.941C512.155,443.542,515.333,328.385,434.16,244.225z" fill="#ffffff" data-original="#000000" style="" class=""/>
	</g>
</g>
<g xmlns="http://www.w3.org/2000/svg">
</g>
<g xmlns="http://www.w3.org/2000/svg">
</g>
<g xmlns="http://www.w3.org/2000/svg">
</g>
<g xmlns="http://www.w3.org/2000/svg">
</g>
<g xmlns="http://www.w3.org/2000/svg">
</g>
<g xmlns="http://www.w3.org/2000/svg">
</g>
<g xmlns="http://www.w3.org/2000/svg">
</g>
<g xmlns="http://www.w3.org/2000/svg">
</g>
<g xmlns="http://www.w3.org/2000/svg">
</g>
<g xmlns="http://www.w3.org/2000/svg">
</g>
<g xmlns="http://www.w3.org/2000/svg">
</g>
<g xmlns="http://www.w3.org/2000/svg">
</g>
<g xmlns="http://www.w3.org/2000/svg">
</g>
<g xmlns="http://www.w3.org/2000/svg">
</g>
<g xmlns="http://www.w3.org/2000/svg">
</g>
</g></svg>
